<svg width="169" height="60" viewBox="0 0 169 60" fill="none" xmlns="http://www.w3.org/2000/svg">
<path d="M0.244614 5.9339L2.85904 37.7882H5.23797L6.49929 20.3234L7.93223 37.7882H10.3291L12.734 5.91553H10.3391L9.08178 22.814L7.75261 5.91553H5.22001L3.99861 22.6336L2.70537 5.91553L0.244614 5.9339Z" fill="black"/>
<path d="M10.4115 43.8353C10.4115 43.8353 9.42557 41.3663 6.48983 41.3663C4.34041 41.3663 2.72385 42.8998 2.652 43.8019C2.58016 44.7039 2.652 51.4393 2.652 51.4393C2.652 51.4393 3.37047 53.6343 6.24435 53.5441C9.11822 53.4539 10.3755 52.1008 10.4115 51.1386C10.4474 50.1764 10.4115 43.8353 10.4115 43.8353ZM7.82897 50.888C7.82897 50.888 7.6294 51.7901 6.55369 51.8101C5.47798 51.8302 5.07484 51.319 4.99102 51.0484V43.9522C4.99102 43.9522 5.13471 43.2005 6.2663 43.2155C7.39789 43.2306 7.79305 43.7417 7.82897 44.0274C7.8649 44.313 7.82897 50.888 7.82897 50.888Z" fill="black"/>
<path d="M35.5144 23L37.9624 14.96L39.0904 10.328H39.3544L40.4824 14.96L42.8824 23H48.2344L52.0504 6.92H48.1144L46.1704 16.04L45.6184 19.568H45.3544L44.6104 16.04L41.9464 6.92H36.5944L33.9064 16.04L33.1624 19.568H32.8984L32.3464 16.04L30.4024 6.92H26.3704L30.1624 23H35.5144ZM56.989 23.24C59.653 23.24 61.333 22.112 61.885 20.24H62.077V23H65.437V15.944C65.437 12.8 63.541 10.736 59.533 10.736C55.573 10.736 53.077 12.8 53.077 15.776V15.848H56.701V15.752C56.701 14.384 57.445 13.904 59.269 13.904C61.189 13.904 61.885 14.336 61.885 15.896V16.352L56.725 16.88C54.157 17.144 52.837 18.248 52.837 20.024C52.837 22.04 54.397 23.24 56.989 23.24ZM56.461 19.784C56.461 19.208 56.845 18.968 57.709 18.896L61.885 18.416C61.789 20.12 60.469 20.696 58.021 20.696C56.965 20.696 56.461 20.432 56.461 19.784ZM75.7338 23V19.76H73.5738C72.3018 19.76 71.8458 19.448 71.8458 18.248V13.952H75.7338V10.976H71.8458V8.648H68.2458V10.976H66.3498V13.952H68.2458V18.656C68.2458 21.68 69.9498 23 72.7578 23H75.7338ZM83.4901 23.24C87.3541 23.24 89.9941 21.152 89.9941 18.056V17.72H86.4181V17.912C86.4181 19.448 85.2901 20 83.4181 20C81.2821 20 80.2981 19.208 80.2981 17C80.2981 14.768 81.2821 13.976 83.4181 13.976C85.2901 13.976 86.4181 14.528 86.4181 16.064V16.256H89.9941V15.92C89.9941 12.8 87.3541 10.736 83.4901 10.736C79.3621 10.736 76.7221 13.16 76.7221 17C76.7221 20.792 79.3621 23.24 83.4901 23.24ZM95.143 23V16.976C95.143 14.96 95.887 13.976 98.311 13.976C100.567 13.976 101.431 14.696 101.431 16.712V23H105.031V15.632C105.031 12.848 103.447 10.736 100.207 10.736C97.135 10.736 95.719 12.608 95.335 14.648H95.143V6.92H91.543V23H95.143ZM113.256 23.24C117.36 23.24 120.12 20.792 120.12 17C120.12 13.16 117.36 10.736 113.256 10.736C109.152 10.736 106.392 13.16 106.392 17C106.392 20.792 109.152 23.24 113.256 23.24ZM113.256 20.048C110.808 20.048 109.968 19.112 109.968 17C109.968 14.888 110.808 13.904 113.256 13.904C115.68 13.904 116.544 14.888 116.544 17C116.544 19.112 115.68 20.048 113.256 20.048ZM126.558 23.24C129.726 23.24 131.19 21.344 131.502 19.328H131.694V23H135.054V10.976H131.454V17.072C131.454 19.112 130.614 20.024 128.262 20.024C125.982 20.024 125.166 19.208 125.166 17.264V10.976H121.566V18.464C121.566 21.152 123.174 23.24 126.558 23.24ZM145.367 23V19.76H143.207C141.935 19.76 141.479 19.448 141.479 18.248V13.952H145.367V10.976H141.479V8.648H137.879V10.976H135.983V13.952H137.879V18.656C137.879 21.68 139.583 23 142.391 23H145.367ZM151.107 17.72C151.107 15.776 151.611 10.448 151.611 8.6V6.92H146.979V8.6C146.979 10.448 147.483 15.752 147.483 17.72H151.107ZM151.347 23V19.088H147.243V23H151.347Z" fill="black"/>
<path d="M29.84 43.12C32.072 43.12 33.044 42.04 33.044 40.888C33.044 39.64 32.12 39.028 30.68 38.752L28.988 38.416C27.8 38.164 27.272 37.888 27.272 36.976C27.272 36.1 27.992 35.644 29.588 35.644C31.34 35.644 32.06 36.268 32.06 37.432V37.576H32.924V37.504C32.924 36.04 31.916 34.84 29.648 34.84C27.344 34.84 26.408 35.944 26.408 37.036C26.408 38.368 27.452 38.92 28.76 39.172L30.464 39.496C31.64 39.736 32.18 40.06 32.18 40.96C32.18 41.872 31.448 42.316 29.84 42.316C27.956 42.316 27.236 41.692 27.236 40.54V40.384H26.372V40.456C26.372 41.992 27.476 43.12 29.84 43.12ZM41.3257 43V35.74H44.6257V34.96H37.1617V35.74H40.4737V43H41.3257ZM52.6363 43.12C54.8683 43.12 56.2603 41.884 56.2603 39.676V34.96H55.4083V39.64C55.4083 41.476 54.5083 42.28 52.6363 42.28C50.7643 42.28 49.8643 41.476 49.8643 39.64V34.96H49.0123V39.676C49.0123 41.884 50.4043 43.12 52.6363 43.12ZM64.7547 43C67.1667 43 68.7027 41.44 68.7027 38.98C68.7027 36.52 67.1667 34.96 64.7547 34.96H61.2627V43H64.7547ZM64.7547 35.74C66.7947 35.74 67.8027 36.796 67.8027 38.98C67.8027 41.164 66.7947 42.22 64.7547 42.22H62.1267V35.74H64.7547ZM79.5483 43V42.22H74.2923V39.34H79.3683V38.572H74.2923V35.74H79.5483V34.96H73.4403V43H79.5483ZM85.1931 43V37.588L85.1691 36.244H85.2291L86.2371 37.6L90.4251 43H91.3611V34.96H90.5091V40.444L90.5331 41.764H90.4611L89.4891 40.42L85.2771 34.96H84.3411V43H85.1931ZM99.9663 43V35.74H103.266V34.96H95.8023V35.74H99.1143V43H99.9663ZM114.368 43V37.336L114.344 36.256H114.404L114.92 37.336L117.596 42.52H118.628L121.304 37.336L121.808 36.256H121.88L121.856 37.336V43H122.708V34.96H121.532L118.844 40.204L118.148 41.692H118.088L117.38 40.204L114.68 34.96H113.516V43H114.368ZM133.841 43V42.22H128.585V39.34H133.661V38.572H128.585V35.74H133.841V34.96H127.733V43H133.841ZM142.15 43C144.562 43 146.098 41.44 146.098 38.98C146.098 36.52 144.562 34.96 142.15 34.96H138.658V43H142.15ZM142.15 35.74C144.19 35.74 145.198 36.796 145.198 38.98C145.198 41.164 144.19 42.22 142.15 42.22H139.522V35.74H142.15ZM151.688 43V34.96H150.836V43H151.688ZM156.997 43L158.077 40.636H162.493L163.573 43H164.533L160.885 34.96H159.697L156.061 43H156.997ZM159.805 36.82L160.237 35.776H160.309L160.753 36.82L162.145 39.868H158.425L159.805 36.82ZM30.968 58C32.504 58 33.488 57.172 33.488 55.78C33.488 54.748 32.852 54.016 31.616 53.812V53.74C32.72 53.572 33.236 52.876 33.236 51.952C33.236 50.68 32.288 49.96 30.848 49.96H26.624V58H30.968ZM27.476 50.74H30.776C31.868 50.74 32.384 51.172 32.384 52.108C32.384 53.032 31.796 53.464 30.704 53.464H27.476V50.74ZM27.476 54.196H30.896C32.012 54.196 32.624 54.664 32.624 55.696C32.624 56.752 32.036 57.22 30.896 57.22H27.476V54.196ZM41.869 58.12C44.281 58.12 45.949 56.488 45.949 53.98C45.949 51.472 44.281 49.84 41.869 49.84C39.481 49.84 37.813 51.472 37.813 53.98C37.813 56.488 39.481 58.12 41.869 58.12ZM41.869 57.292C39.841 57.292 38.713 56.164 38.713 53.98C38.713 51.796 39.841 50.668 41.869 50.668C43.909 50.668 45.049 51.796 45.049 53.98C45.049 56.164 43.909 57.292 41.869 57.292ZM54.2055 58C56.6175 58 58.1535 56.44 58.1535 53.98C58.1535 51.52 56.6175 49.96 54.2055 49.96H50.7135V58H54.2055ZM54.2055 50.74C56.2455 50.74 57.2535 51.796 57.2535 53.98C57.2535 56.164 56.2455 57.22 54.2055 57.22H51.5775V50.74H54.2055ZM66.4791 58V55.144L69.9951 49.96H68.9511L66.7551 53.236L66.1071 54.22H66.0351L65.3751 53.236L63.1671 49.96H62.1231L65.6151 55.144V58H66.4791ZM83.8315 58.12C86.2435 58.12 87.9115 56.488 87.9115 53.98C87.9115 51.472 86.2435 49.84 83.8315 49.84C81.4435 49.84 79.7755 51.472 79.7755 53.98C79.7755 56.488 81.4435 58.12 83.8315 58.12ZM83.8315 57.292C81.8035 57.292 80.6755 56.164 80.6755 53.98C80.6755 51.796 81.8035 50.668 83.8315 50.668C85.8715 50.668 87.0115 51.796 87.0115 53.98C87.0115 56.164 85.8715 57.292 83.8315 57.292ZM93.504 58V54.58H98.496V53.812H93.504V50.74H98.676V49.96H92.652V58H93.504ZM110.067 58V49.96H109.215V58H110.067ZM115.952 58V49.96H115.1V58H115.952ZM124.562 58V50.74H127.862V49.96H120.398V50.74H123.71V58H124.562ZM133.16 58V54.712H134.888C135.956 54.712 136.376 55 136.784 55.672L138.212 58H139.196L137.684 55.54C137.408 55.072 137.108 54.724 136.58 54.58V54.52C138.068 54.484 139.064 53.644 139.064 52.288C139.064 50.812 137.924 49.96 136.244 49.96H132.308V58H133.16ZM133.16 50.74H136.232C137.504 50.74 138.176 51.244 138.176 52.384C138.176 53.524 137.504 54.028 136.232 54.028H133.16V50.74Z" fill="black"/>
</svg>
